<?xml version="1.0" encoding="us-ascii" standalone="no"?><svg xmlns="http://www.w3.org/2000/svg" xmlns:xlink="http://www.w3.org/1999/xlink" contentStyleType="text/css" height="331px" preserveAspectRatio="none" style="width:1299px;height:331px;background:#FFFFFF;" version="1.1" viewBox="0 0 1299 331" width="1299px" zoomAndPan="magnify"><defs/><g><text fill="#000000" font-family="Serif" font-size="10" lengthAdjust="spacing" textLength="7" x="5" y="25.2822">4</text><text fill="#000000" font-family="Serif" font-size="10" lengthAdjust="spacing" textLength="14" x="89" y="25.2822">11</text><text fill="#000000" font-family="Serif" font-size="10" lengthAdjust="spacing" textLength="14" x="173" y="25.2822">18</text><text fill="#000000" font-family="Serif" font-size="10" lengthAdjust="spacing" textLength="12" x="257" y="25.2822">25</text><text fill="#000000" font-family="Serif" font-size="10" lengthAdjust="spacing" textLength="6" x="341" y="25.2822">2</text><text fill="#000000" font-family="Serif" font-size="10" lengthAdjust="spacing" textLength="7" x="425" y="25.2822">9</text><text fill="#000000" font-family="Serif" font-size="10" lengthAdjust="spacing" textLength="14" x="509" y="25.2822">16</text><text fill="#000000" font-family="Serif" font-size="10" lengthAdjust="spacing" textLength="13" x="593" y="25.2822">23</text><text fill="#000000" font-family="Serif" font-size="10" lengthAdjust="spacing" textLength="14" x="677" y="25.2822">30</text><text fill="#000000" font-family="Serif" font-size="10" lengthAdjust="spacing" textLength="7" x="761" y="25.2822">6</text><text fill="#000000" font-family="Serif" font-size="10" lengthAdjust="spacing" textLength="14" x="845" y="25.2822">13</text><text fill="#000000" font-family="Serif" font-size="10" lengthAdjust="spacing" textLength="13" x="929" y="25.2822">20</text><text fill="#000000" font-family="Serif" font-size="10" lengthAdjust="spacing" textLength="13" x="1013" y="25.2822">27</text><text fill="#000000" font-family="Serif" font-size="10" lengthAdjust="spacing" textLength="7" x="1097" y="25.2822">4</text><line style="stroke:#C0C0C0;stroke-width:1.0;" x1="0" x2="0" y1="16" y2="313.0703"/><line style="stroke:#C0C0C0;stroke-width:1.0;" x1="84" x2="84" y1="16" y2="313.0703"/><line style="stroke:#C0C0C0;stroke-width:1.0;" x1="168" x2="168" y1="16" y2="313.0703"/><line style="stroke:#C0C0C0;stroke-width:1.0;" x1="252" x2="252" y1="16" y2="313.0703"/><line style="stroke:#C0C0C0;stroke-width:1.0;" x1="336" x2="336" y1="16" y2="313.0703"/><line style="stroke:#C0C0C0;stroke-width:1.0;" x1="420" x2="420" y1="16" y2="313.0703"/><line style="stroke:#C0C0C0;stroke-width:1.0;" x1="504" x2="504" y1="16" y2="313.0703"/><line style="stroke:#C0C0C0;stroke-width:1.0;" x1="588" x2="588" y1="16" y2="313.0703"/><line style="stroke:#C0C0C0;stroke-width:1.0;" x1="672" x2="672" y1="16" y2="313.0703"/><line style="stroke:#C0C0C0;stroke-width:1.0;" x1="756" x2="756" y1="16" y2="313.0703"/><line style="stroke:#C0C0C0;stroke-width:1.0;" x1="840" x2="840" y1="16" y2="313.0703"/><line style="stroke:#C0C0C0;stroke-width:1.0;" x1="924" x2="924" y1="16" y2="313.0703"/><line style="stroke:#C0C0C0;stroke-width:1.0;" x1="1008" x2="1008" y1="16" y2="313.0703"/><line style="stroke:#C0C0C0;stroke-width:1.0;" x1="1092" x2="1092" y1="16" y2="313.0703"/><line style="stroke:#C0C0C0;stroke-width:1.0;" x1="1128" x2="1128" y1="16" y2="313.0703"/><line style="stroke:#C0C0C0;stroke-width:1.0;" x1="0" x2="0" y1="0" y2="16"/><line style="stroke:#C0C0C0;stroke-width:1.0;" x1="324" x2="324" y1="0" y2="16"/><text fill="#000000" font-family="Serif" font-size="12" font-weight="bold" lengthAdjust="spacing" textLength="75" x="124.5" y="11.2676">Sept. 2023</text><line style="stroke:#C0C0C0;stroke-width:1.0;" x1="696" x2="696" y1="0" y2="16"/><text fill="#000000" font-family="Serif" font-size="12" font-weight="bold" lengthAdjust="spacing" textLength="68" x="476" y="11.2676">Oct. 2023</text><line style="stroke:#C0C0C0;stroke-width:1.0;" x1="1056" x2="1056" y1="0" y2="16"/><text fill="#000000" font-family="Serif" font-size="12" font-weight="bold" lengthAdjust="spacing" textLength="71" x="840.5" y="11.2676">Nov. 2023</text><line style="stroke:#C0C0C0;stroke-width:1.0;" x1="1128" x2="1128" y1="0" y2="16"/><text fill="#000000" font-family="Serif" font-size="12" font-weight="bold" lengthAdjust="spacing" textLength="67" x="1058.5" y="11.2676">Dic. 2023</text><line style="stroke:#C0C0C0;stroke-width:1.0;" x1="0" x2="1128" y1="0" y2="0"/><line style="stroke:#C0C0C0;stroke-width:1.0;" x1="0" x2="1128" y1="16" y2="16"/><line style="stroke:#C0C0C0;stroke-width:1.0;" x1="0" x2="1128" y1="29" y2="29"/><line style="stroke:#181818;stroke-width:1.0;" x1="0" x2="5" y1="45.4023" y2="45.4023"/><line style="stroke:#181818;stroke-width:1.0;" x1="65" x2="1127" y1="45.4023" y2="45.4023"/><polygon fill="#000000" points="138,63.8047,143,68.8047,138,73.8047,133,68.8047" style="stroke:#000000;stroke-width:1.0;"/><polygon fill="#000000" points="546,80.6094,551,85.6094,546,90.6094,541,85.6094" style="stroke:#000000;stroke-width:1.0;"/><polygon fill="#000000" points="1122,97.4141,1127,102.4141,1122,107.4141,1117,102.4141" style="stroke:#000000;stroke-width:1.0;"/><line style="stroke:#181818;stroke-width:1.0;" x1="0" x2="5" y1="128.6211" y2="128.6211"/><line style="stroke:#181818;stroke-width:1.0;" x1="81" x2="1127" y1="128.6211" y2="128.6211"/><rect fill="#E2E2F0" height="12.8047" style="stroke:none;stroke-width:1.0;" width="140" x="2" y="147.0234"/><line style="stroke:#181818;stroke-width:1.0;" x1="2" x2="142" y1="147.0234" y2="147.0234"/><line style="stroke:#181818;stroke-width:1.0;" x1="2" x2="142" y1="159.8281" y2="159.8281"/><line style="stroke:#181818;stroke-width:1.0;" x1="2" x2="2" y1="147.0234" y2="159.8281"/><line style="stroke:#181818;stroke-width:1.0;" x1="142" x2="142" y1="147.0234" y2="159.8281"/><rect fill="#E2E2F0" height="12.8047" style="stroke:none;stroke-width:1.0;" width="164" x="86" y="163.8281"/><line style="stroke:#181818;stroke-width:1.0;" x1="86" x2="250" y1="163.8281" y2="163.8281"/><line style="stroke:#181818;stroke-width:1.0;" x1="86" x2="250" y1="176.6328" y2="176.6328"/><line style="stroke:#181818;stroke-width:1.0;" x1="86" x2="86" y1="163.8281" y2="176.6328"/><line style="stroke:#181818;stroke-width:1.0;" x1="250" x2="250" y1="163.8281" y2="176.6328"/><polygon fill="#000000" points="258,180.6328,263,185.6328,258,190.6328,253,185.6328" style="stroke:#000000;stroke-width:1.0;"/><polygon fill="#000000" points="258,197.4375,263,202.4375,258,207.4375,253,202.4375" style="stroke:#000000;stroke-width:1.0;"/><rect fill="#E2E2F0" height="12.8047" style="stroke:none;stroke-width:1.0;" width="164" x="254" y="214.2422"/><line style="stroke:#181818;stroke-width:1.0;" x1="254" x2="418" y1="214.2422" y2="214.2422"/><line style="stroke:#181818;stroke-width:1.0;" x1="254" x2="418" y1="227.0469" y2="227.0469"/><line style="stroke:#181818;stroke-width:1.0;" x1="254" x2="254" y1="214.2422" y2="227.0469"/><line style="stroke:#181818;stroke-width:1.0;" x1="418" x2="418" y1="214.2422" y2="227.0469"/><rect fill="#E2E2F0" height="12.8047" style="stroke:none;stroke-width:1.0;" width="164" x="338" y="231.0469"/><line style="stroke:#181818;stroke-width:1.0;" x1="338" x2="502" y1="231.0469" y2="231.0469"/><line style="stroke:#181818;stroke-width:1.0;" x1="338" x2="502" y1="243.8516" y2="243.8516"/><line style="stroke:#181818;stroke-width:1.0;" x1="338" x2="338" y1="231.0469" y2="243.8516"/><line style="stroke:#181818;stroke-width:1.0;" x1="502" x2="502" y1="231.0469" y2="243.8516"/><rect fill="#E2E2F0" height="12.8047" style="stroke:none;stroke-width:1.0;" width="128" x="422" y="247.8516"/><line style="stroke:#181818;stroke-width:1.0;" x1="422" x2="550" y1="247.8516" y2="247.8516"/><line style="stroke:#181818;stroke-width:1.0;" x1="422" x2="550" y1="260.6563" y2="260.6563"/><line style="stroke:#181818;stroke-width:1.0;" x1="422" x2="422" y1="247.8516" y2="260.6563"/><line style="stroke:#181818;stroke-width:1.0;" x1="550" x2="550" y1="247.8516" y2="260.6563"/><rect fill="#E2E2F0" height="12.8047" style="stroke:none;stroke-width:1.0;" width="164" x="590" y="264.6563"/><line style="stroke:#181818;stroke-width:1.0;" x1="590" x2="754" y1="264.6563" y2="264.6563"/><line style="stroke:#181818;stroke-width:1.0;" x1="590" x2="754" y1="277.4609" y2="277.4609"/><line style="stroke:#181818;stroke-width:1.0;" x1="590" x2="590" y1="264.6563" y2="277.4609"/><line style="stroke:#181818;stroke-width:1.0;" x1="754" x2="754" y1="264.6563" y2="277.4609"/><rect fill="#E2E2F0" height="12.8047" style="stroke:none;stroke-width:1.0;" width="164" x="758" y="281.4609"/><line style="stroke:#181818;stroke-width:1.0;" x1="758" x2="922" y1="281.4609" y2="281.4609"/><line style="stroke:#181818;stroke-width:1.0;" x1="758" x2="922" y1="294.2656" y2="294.2656"/><line style="stroke:#181818;stroke-width:1.0;" x1="758" x2="758" y1="281.4609" y2="294.2656"/><line style="stroke:#181818;stroke-width:1.0;" x1="922" x2="922" y1="281.4609" y2="294.2656"/><rect fill="#E2E2F0" height="12.8047" style="stroke:none;stroke-width:1.0;" width="200" x="926" y="298.2656"/><line style="stroke:#181818;stroke-width:1.0;" x1="926" x2="1126" y1="298.2656" y2="298.2656"/><line style="stroke:#181818;stroke-width:1.0;" x1="926" x2="1126" y1="311.0703" y2="311.0703"/><line style="stroke:#181818;stroke-width:1.0;" x1="926" x2="926" y1="298.2656" y2="311.0703"/><line style="stroke:#181818;stroke-width:1.0;" x1="1126" x2="1126" y1="298.2656" y2="311.0703"/><text fill="#000000" font-family="sans-serif" font-size="11" lengthAdjust="spacing" textLength="50" x="10" y="49.2104">Entregas</text><text fill="#000000" font-family="sans-serif" font-size="11" lengthAdjust="spacing" textLength="101" x="146" y="74.0151">Entrega avance 1</text><text fill="#000000" font-family="sans-serif" font-size="11" lengthAdjust="spacing" textLength="101" x="554" y="90.8198">Entrega avance 2</text><text fill="#000000" font-family="sans-serif" font-size="11" lengthAdjust="spacing" textLength="167" x="1130" y="107.6245">Entrega informe patrocinante</text><text fill="#000000" font-family="sans-serif" font-size="11" lengthAdjust="spacing" textLength="66" x="10" y="132.4292">Actividades</text><text fill="#000000" font-family="sans-serif" font-size="11" lengthAdjust="spacing" textLength="201" x="146" y="157.2339">Definici&#243;n de problema y objetivos</text><text fill="#000000" font-family="sans-serif" font-size="11" lengthAdjust="spacing" textLength="191" x="254" y="174.0386">An&#225;lisis y selecci&#243;n de autopiloto</text><text fill="#000000" font-family="sans-serif" font-size="11" lengthAdjust="spacing" textLength="161" x="266" y="190.8433">Compra de microcontrolador</text><text fill="#000000" font-family="sans-serif" font-size="11" lengthAdjust="spacing" textLength="344" x="266" y="207.6479">Compra de insumos electr&#243;nicos para extensi&#243;n de interfaz</text><text fill="#000000" font-family="sans-serif" font-size="11" lengthAdjust="spacing" textLength="320" x="422" y="224.4526">Extensi&#243;n de protocolo de comunicaci&#243;n para autopiloto</text><text fill="#000000" font-family="sans-serif" font-size="11" lengthAdjust="spacing" textLength="368" x="506" y="241.2573">Pruebas de interfaz ArduPilot y Pixhawk con X-Plane en software</text><text fill="#000000" font-family="sans-serif" font-size="11" lengthAdjust="spacing" textLength="136" x="554" y="258.062">Redacci&#243;n de informe 2</text><text fill="#000000" font-family="sans-serif" font-size="11" lengthAdjust="spacing" textLength="208" x="758" y="274.8667">Implementaci&#243;n de nuevo algoritmo</text><text fill="#000000" font-family="sans-serif" font-size="11" lengthAdjust="spacing" textLength="287" x="926" y="291.6714">Establecimiento de metodolog&#237;a y documentaci&#243;n</text><text fill="#000000" font-family="sans-serif" font-size="11" lengthAdjust="spacing" textLength="134" x="930" y="308.4761">Redacci&#243;n informe final</text><line style="stroke:#C0C0C0;stroke-width:1.0;" x1="0" x2="1128" y1="313.0703" y2="313.0703"/><line style="stroke:#C0C0C0;stroke-width:1.0;" x1="0" x2="0" y1="313.0703" y2="329.0703"/><line style="stroke:#C0C0C0;stroke-width:1.0;" x1="324" x2="324" y1="313.0703" y2="329.0703"/><text fill="#000000" font-family="Serif" font-size="12" font-weight="bold" lengthAdjust="spacing" textLength="75" x="124.5" y="324.3379">Sept. 2023</text><line style="stroke:#C0C0C0;stroke-width:1.0;" x1="696" x2="696" y1="313.0703" y2="329.0703"/><text fill="#000000" font-family="Serif" font-size="12" font-weight="bold" lengthAdjust="spacing" textLength="68" x="476" y="324.3379">Oct. 2023</text><line style="stroke:#C0C0C0;stroke-width:1.0;" x1="1056" x2="1056" y1="313.0703" y2="329.0703"/><text fill="#000000" font-family="Serif" font-size="12" font-weight="bold" lengthAdjust="spacing" textLength="71" x="840.5" y="324.3379">Nov. 2023</text><line style="stroke:#C0C0C0;stroke-width:1.0;" x1="1128" x2="1128" y1="313.0703" y2="329.0703"/><text fill="#000000" font-family="Serif" font-size="12" font-weight="bold" lengthAdjust="spacing" textLength="67" x="1058.5" y="324.3379">Dic. 2023</text><line style="stroke:#C0C0C0;stroke-width:1.0;" x1="0" x2="1128" y1="329.0703" y2="329.0703"/><!--SRC=[XLJBJkD04BpxA_e8MXdP3h302HQo3qIaY01Q2N7es1qpO4zRC-q4-9lzW3tj9_1ZstOIGeXNUvoPwkgkcfevze9EShGYmT3n0wK2xPQ794fwONGOHhj1WJQlCISW7rJEMF4f5WGpeiVY6MP6xg7Pi1awo508NfXBw0L164BVYgCSFOHXSBjO04xHfWJn7TnZLP7rWFBMCDxR02QRm3WAuyCLqDW9kvAWGd6S6gkAgACe2QFzTgoJLCpKP9ZHVB8pcXXhKlFwnqAcD8x71PK8py3Z1r8i-xkbCyfszYa2j1cePhys-8bz_LKORxnMUYeeVQF4MhWo1Gkl4trkYGhqZUUjfpwuFUMoSjYKbIPLGQmokS2CNQTboTxx4cDzNRA7fhquRMzINLMef_GaMheSIM-It0HV_idPNuEhAQAZ5DmiKYvh9SQvlfQyM-6AhqleqDKqrdIycmPEN5OF6nxrS6YUxd7sgEqi_0o7caHDeGNF4vcXetKhauEk5fUKuUeQba59DcRKH4M77svraR8VPQLf82luncDhcZ9WaRCpKd8NMzBh6gUlGCrMQagZXAsN9Gbdwcl- -hj9NCPflMgsoHnhYFyZTAbIGur55qFoCR-Bft6iE_Fl86ZCbkl11Kp9UQF-npiDSYUEnoJOsxgsZvPdjac2tZg1c9AsWwrlmmkzdjhfiysC5sV6jMZrTd2kZnakQzlWZg1PRLqDjc7KNsxgNp4rZcsZFJY_6Sn1y9rbLB6quFtTy8iH697JeU1c4EYxnReGBKqvCpO_Wkkhh-51SB7uievKOd3Asi0zwzdeBm00]--></g></svg>