<?xml version="1.0" encoding="us-ascii" standalone="no"?><svg xmlns="http://www.w3.org/2000/svg" xmlns:xlink="http://www.w3.org/1999/xlink" contentStyleType="text/css" height="314px" preserveAspectRatio="none" style="width:1467px;height:314px;background:#FFFFFF;" version="1.1" viewBox="0 0 1467 314" width="1467px" zoomAndPan="magnify"><defs/><g><text fill="#000000" font-family="Serif" font-size="10" lengthAdjust="spacing" textLength="13" x="5" y="25.2822">21</text><text fill="#000000" font-family="Serif" font-size="10" lengthAdjust="spacing" textLength="13" x="89" y="25.2822">28</text><text fill="#000000" font-family="Serif" font-size="10" lengthAdjust="spacing" textLength="7" x="173" y="25.2822">4</text><text fill="#000000" font-family="Serif" font-size="10" lengthAdjust="spacing" textLength="14" x="257" y="25.2822">11</text><text fill="#000000" font-family="Serif" font-size="10" lengthAdjust="spacing" textLength="14" x="341" y="25.2822">18</text><text fill="#000000" font-family="Serif" font-size="10" lengthAdjust="spacing" textLength="12" x="425" y="25.2822">25</text><text fill="#000000" font-family="Serif" font-size="10" lengthAdjust="spacing" textLength="6" x="509" y="25.2822">2</text><text fill="#000000" font-family="Serif" font-size="10" lengthAdjust="spacing" textLength="7" x="593" y="25.2822">9</text><text fill="#000000" font-family="Serif" font-size="10" lengthAdjust="spacing" textLength="14" x="677" y="25.2822">16</text><text fill="#000000" font-family="Serif" font-size="10" lengthAdjust="spacing" textLength="13" x="761" y="25.2822">23</text><text fill="#000000" font-family="Serif" font-size="10" lengthAdjust="spacing" textLength="14" x="845" y="25.2822">30</text><text fill="#000000" font-family="Serif" font-size="10" lengthAdjust="spacing" textLength="7" x="929" y="25.2822">6</text><text fill="#000000" font-family="Serif" font-size="10" lengthAdjust="spacing" textLength="14" x="1013" y="25.2822">13</text><text fill="#000000" font-family="Serif" font-size="10" lengthAdjust="spacing" textLength="13" x="1097" y="25.2822">20</text><text fill="#000000" font-family="Serif" font-size="10" lengthAdjust="spacing" textLength="13" x="1181" y="25.2822">27</text><text fill="#000000" font-family="Serif" font-size="10" lengthAdjust="spacing" textLength="7" x="1265" y="25.2822">4</text><line style="stroke:#C0C0C0;stroke-width:1.0;" x1="0" x2="0" y1="16" y2="296.2656"/><line style="stroke:#C0C0C0;stroke-width:1.0;" x1="84" x2="84" y1="16" y2="296.2656"/><line style="stroke:#C0C0C0;stroke-width:1.0;" x1="168" x2="168" y1="16" y2="296.2656"/><line style="stroke:#C0C0C0;stroke-width:1.0;" x1="252" x2="252" y1="16" y2="296.2656"/><line style="stroke:#C0C0C0;stroke-width:1.0;" x1="336" x2="336" y1="16" y2="296.2656"/><line style="stroke:#C0C0C0;stroke-width:1.0;" x1="420" x2="420" y1="16" y2="296.2656"/><line style="stroke:#C0C0C0;stroke-width:1.0;" x1="504" x2="504" y1="16" y2="296.2656"/><line style="stroke:#C0C0C0;stroke-width:1.0;" x1="588" x2="588" y1="16" y2="296.2656"/><line style="stroke:#C0C0C0;stroke-width:1.0;" x1="672" x2="672" y1="16" y2="296.2656"/><line style="stroke:#C0C0C0;stroke-width:1.0;" x1="756" x2="756" y1="16" y2="296.2656"/><line style="stroke:#C0C0C0;stroke-width:1.0;" x1="840" x2="840" y1="16" y2="296.2656"/><line style="stroke:#C0C0C0;stroke-width:1.0;" x1="924" x2="924" y1="16" y2="296.2656"/><line style="stroke:#C0C0C0;stroke-width:1.0;" x1="1008" x2="1008" y1="16" y2="296.2656"/><line style="stroke:#C0C0C0;stroke-width:1.0;" x1="1092" x2="1092" y1="16" y2="296.2656"/><line style="stroke:#C0C0C0;stroke-width:1.0;" x1="1176" x2="1176" y1="16" y2="296.2656"/><line style="stroke:#C0C0C0;stroke-width:1.0;" x1="1260" x2="1260" y1="16" y2="296.2656"/><line style="stroke:#C0C0C0;stroke-width:1.0;" x1="1296" x2="1296" y1="16" y2="296.2656"/><line style="stroke:#C0C0C0;stroke-width:1.0;" x1="0" x2="0" y1="0" y2="16"/><line style="stroke:#C0C0C0;stroke-width:1.0;" x1="132" x2="132" y1="0" y2="16"/><text fill="#000000" font-family="Serif" font-size="12" font-weight="bold" lengthAdjust="spacing" textLength="70" x="31" y="11.2676">Ago. 2023</text><line style="stroke:#C0C0C0;stroke-width:1.0;" x1="492" x2="492" y1="0" y2="16"/><text fill="#000000" font-family="Serif" font-size="12" font-weight="bold" lengthAdjust="spacing" textLength="75" x="274.5" y="11.2676">Sept. 2023</text><line style="stroke:#C0C0C0;stroke-width:1.0;" x1="864" x2="864" y1="0" y2="16"/><text fill="#000000" font-family="Serif" font-size="12" font-weight="bold" lengthAdjust="spacing" textLength="68" x="644" y="11.2676">Oct. 2023</text><line style="stroke:#C0C0C0;stroke-width:1.0;" x1="1224" x2="1224" y1="0" y2="16"/><text fill="#000000" font-family="Serif" font-size="12" font-weight="bold" lengthAdjust="spacing" textLength="71" x="1008.5" y="11.2676">Nov. 2023</text><line style="stroke:#C0C0C0;stroke-width:1.0;" x1="1296" x2="1296" y1="0" y2="16"/><text fill="#000000" font-family="Serif" font-size="12" font-weight="bold" lengthAdjust="spacing" textLength="67" x="1226.5" y="11.2676">Dic. 2023</text><line style="stroke:#C0C0C0;stroke-width:1.0;" x1="0" x2="1296" y1="0" y2="0"/><line style="stroke:#C0C0C0;stroke-width:1.0;" x1="0" x2="1296" y1="16" y2="16"/><line style="stroke:#C0C0C0;stroke-width:1.0;" x1="0" x2="1296" y1="29" y2="29"/><line style="stroke:#181818;stroke-width:1.0;" x1="0" x2="5" y1="45.4023" y2="45.4023"/><line style="stroke:#181818;stroke-width:1.0;" x1="65" x2="1295" y1="45.4023" y2="45.4023"/><polygon fill="#000000" points="210,63.8047,215,68.8047,210,73.8047,205,68.8047" style="stroke:#000000;stroke-width:1.0;"/><polygon fill="#000000" points="714,80.6094,719,85.6094,714,90.6094,709,85.6094" style="stroke:#000000;stroke-width:1.0;"/><polygon fill="#000000" points="1290,97.4141,1295,102.4141,1290,107.4141,1285,102.4141" style="stroke:#000000;stroke-width:1.0;"/><line style="stroke:#181818;stroke-width:1.0;" x1="0" x2="5" y1="128.6211" y2="128.6211"/><line style="stroke:#181818;stroke-width:1.0;" x1="81" x2="1295" y1="128.6211" y2="128.6211"/><rect fill="#E2E2F0" height="12.8047" style="stroke:none;stroke-width:1.0;" width="212" x="2" y="147.0234"/><line style="stroke:#181818;stroke-width:1.0;" x1="2" x2="214" y1="147.0234" y2="147.0234"/><line style="stroke:#181818;stroke-width:1.0;" x1="2" x2="214" y1="159.8281" y2="159.8281"/><line style="stroke:#181818;stroke-width:1.0;" x1="2" x2="2" y1="147.0234" y2="159.8281"/><line style="stroke:#181818;stroke-width:1.0;" x1="214" x2="214" y1="147.0234" y2="159.8281"/><rect fill="#E2E2F0" height="12.8047" style="stroke:none;stroke-width:1.0;" width="164" x="170" y="163.8281"/><line style="stroke:#181818;stroke-width:1.0;" x1="170" x2="334" y1="163.8281" y2="163.8281"/><line style="stroke:#181818;stroke-width:1.0;" x1="170" x2="334" y1="176.6328" y2="176.6328"/><line style="stroke:#181818;stroke-width:1.0;" x1="170" x2="170" y1="163.8281" y2="176.6328"/><line style="stroke:#181818;stroke-width:1.0;" x1="334" x2="334" y1="163.8281" y2="176.6328"/><polygon fill="#000000" points="306,180.6328,311,185.6328,306,190.6328,301,185.6328" style="stroke:#000000;stroke-width:1.0;"/><polygon fill="#000000" points="306,197.4375,311,202.4375,306,207.4375,301,202.4375" style="stroke:#000000;stroke-width:1.0;"/><rect fill="#E2E2F0" height="12.8047" style="stroke:none;stroke-width:1.0;" width="248" x="338" y="214.2422"/><line style="stroke:#181818;stroke-width:1.0;" x1="338" x2="586" y1="214.2422" y2="214.2422"/><line style="stroke:#181818;stroke-width:1.0;" x1="338" x2="586" y1="227.0469" y2="227.0469"/><line style="stroke:#181818;stroke-width:1.0;" x1="338" x2="338" y1="214.2422" y2="227.0469"/><line style="stroke:#181818;stroke-width:1.0;" x1="586" x2="586" y1="214.2422" y2="227.0469"/><rect fill="#E2E2F0" height="12.8047" style="stroke:none;stroke-width:1.0;" width="248" x="338" y="231.0469"/><line style="stroke:#181818;stroke-width:1.0;" x1="338" x2="586" y1="231.0469" y2="231.0469"/><line style="stroke:#181818;stroke-width:1.0;" x1="338" x2="586" y1="243.8516" y2="243.8516"/><line style="stroke:#181818;stroke-width:1.0;" x1="338" x2="338" y1="231.0469" y2="243.8516"/><line style="stroke:#181818;stroke-width:1.0;" x1="586" x2="586" y1="231.0469" y2="243.8516"/><rect fill="#E2E2F0" height="12.8047" style="stroke:none;stroke-width:1.0;" width="128" x="590" y="247.8516"/><line style="stroke:#181818;stroke-width:1.0;" x1="590" x2="718" y1="247.8516" y2="247.8516"/><line style="stroke:#181818;stroke-width:1.0;" x1="590" x2="718" y1="260.6563" y2="260.6563"/><line style="stroke:#181818;stroke-width:1.0;" x1="590" x2="590" y1="247.8516" y2="260.6563"/><line style="stroke:#181818;stroke-width:1.0;" x1="718" x2="718" y1="247.8516" y2="260.6563"/><rect fill="#E2E2F0" height="12.8047" style="stroke:none;stroke-width:1.0;" width="248" x="758" y="264.6563"/><line style="stroke:#181818;stroke-width:1.0;" x1="758" x2="1006" y1="264.6563" y2="264.6563"/><line style="stroke:#181818;stroke-width:1.0;" x1="758" x2="1006" y1="277.4609" y2="277.4609"/><line style="stroke:#181818;stroke-width:1.0;" x1="758" x2="758" y1="264.6563" y2="277.4609"/><line style="stroke:#181818;stroke-width:1.0;" x1="1006" x2="1006" y1="264.6563" y2="277.4609"/><rect fill="#E2E2F0" height="12.8047" style="stroke:none;stroke-width:1.0;" width="284" x="1010" y="281.4609"/><line style="stroke:#181818;stroke-width:1.0;" x1="1010" x2="1294" y1="281.4609" y2="281.4609"/><line style="stroke:#181818;stroke-width:1.0;" x1="1010" x2="1294" y1="294.2656" y2="294.2656"/><line style="stroke:#181818;stroke-width:1.0;" x1="1010" x2="1010" y1="281.4609" y2="294.2656"/><line style="stroke:#181818;stroke-width:1.0;" x1="1294" x2="1294" y1="281.4609" y2="294.2656"/><text fill="#000000" font-family="sans-serif" font-size="11" lengthAdjust="spacing" textLength="50" x="10" y="49.2104">Entregas</text><text fill="#000000" font-family="sans-serif" font-size="11" lengthAdjust="spacing" textLength="101" x="218" y="74.0151">Entrega avance 1</text><text fill="#000000" font-family="sans-serif" font-size="11" lengthAdjust="spacing" textLength="101" x="722" y="90.8198">Entrega avance 2</text><text fill="#000000" font-family="sans-serif" font-size="11" lengthAdjust="spacing" textLength="167" x="1298" y="107.6245">Entrega informe patrocinante</text><text fill="#000000" font-family="sans-serif" font-size="11" lengthAdjust="spacing" textLength="66" x="10" y="132.4292">Actividades</text><text fill="#000000" font-family="sans-serif" font-size="11" lengthAdjust="spacing" textLength="201" x="6" y="157.2339">Definici&#243;n de problema y objetivos</text><text fill="#000000" font-family="sans-serif" font-size="11" lengthAdjust="spacing" textLength="191" x="338" y="174.0386">An&#225;lisis y selecci&#243;n de autopiloto</text><text fill="#000000" font-family="sans-serif" font-size="11" lengthAdjust="spacing" textLength="161" x="314" y="190.8433">Compra de microcontrolador</text><text fill="#000000" font-family="sans-serif" font-size="11" lengthAdjust="spacing" textLength="344" x="314" y="207.6479">Compra de insumos electr&#243;nicos para extensi&#243;n de interfaz</text><text fill="#000000" font-family="sans-serif" font-size="11" lengthAdjust="spacing" textLength="320" x="590" y="224.4526">Extensi&#243;n de protocolo de comunicaci&#243;n para autopiloto</text><text fill="#000000" font-family="sans-serif" font-size="11" lengthAdjust="spacing" textLength="368" x="590" y="241.2573">Pruebas de interfaz ArduPilot y Pixhawk con X-Plane en software</text><text fill="#000000" font-family="sans-serif" font-size="11" lengthAdjust="spacing" textLength="136" x="722" y="258.062">Redacci&#243;n de informe 2</text><text fill="#000000" font-family="sans-serif" font-size="11" lengthAdjust="spacing" textLength="149" x="762" y="274.8667">Validaci&#243;n de arquitectura</text><text fill="#000000" font-family="sans-serif" font-size="11" lengthAdjust="spacing" textLength="134" x="1014" y="291.6714">Redacci&#243;n informe final</text><line style="stroke:#C0C0C0;stroke-width:1.0;" x1="0" x2="1296" y1="296.2656" y2="296.2656"/><line style="stroke:#C0C0C0;stroke-width:1.0;" x1="0" x2="0" y1="296.2656" y2="312.2656"/><line style="stroke:#C0C0C0;stroke-width:1.0;" x1="132" x2="132" y1="296.2656" y2="312.2656"/><text fill="#000000" font-family="Serif" font-size="12" font-weight="bold" lengthAdjust="spacing" textLength="70" x="31" y="307.5332">Ago. 2023</text><line style="stroke:#C0C0C0;stroke-width:1.0;" x1="492" x2="492" y1="296.2656" y2="312.2656"/><text fill="#000000" font-family="Serif" font-size="12" font-weight="bold" lengthAdjust="spacing" textLength="75" x="274.5" y="307.5332">Sept. 2023</text><line style="stroke:#C0C0C0;stroke-width:1.0;" x1="864" x2="864" y1="296.2656" y2="312.2656"/><text fill="#000000" font-family="Serif" font-size="12" font-weight="bold" lengthAdjust="spacing" textLength="68" x="644" y="307.5332">Oct. 2023</text><line style="stroke:#C0C0C0;stroke-width:1.0;" x1="1224" x2="1224" y1="296.2656" y2="312.2656"/><text fill="#000000" font-family="Serif" font-size="12" font-weight="bold" lengthAdjust="spacing" textLength="71" x="1008.5" y="307.5332">Nov. 2023</text><line style="stroke:#C0C0C0;stroke-width:1.0;" x1="1296" x2="1296" y1="296.2656" y2="312.2656"/><text fill="#000000" font-family="Serif" font-size="12" font-weight="bold" lengthAdjust="spacing" textLength="67" x="1226.5" y="307.5332">Dic. 2023</text><line style="stroke:#C0C0C0;stroke-width:1.0;" x1="0" x2="1296" y1="312.2656" y2="312.2656"/><!--SRC=[ZLJ1Jjj04BtlLymHL2so7Kg14nJILeX84G5K2N6Os9EmPBthxeuJu6_uXdu2FzPn4fS4WjhZZcVUlFTcnaUHCV0O7RFg1tzFESCy525BievEzdMMAejkNEEOWAAgWd4SSxG4CwA9VOIPuJje0gx000KomPFt9NIKqXgwZWEDCOBMwcRv09oYomdIMxZ3gY8N0NdPy40dNzubPkyJqqId1w-9neryA0agvE1puqGHRIZATB8tftMSivcQ0WjQC3kbaN4cDo-_7HG24_pGKedm27vuJvBhusthZA2TVae0NG6YEQuHFtOlpzP44wKoagNyBoJMx2jZFVjre7HtZcGnDgRFJOtgviINLS2chZIvAFAYqriiVDZeMVfvjSIuM9S-GjEVW_GtkRmgbA_qm5BQSf9HKXZXquUOtRLqSOM5YlND8_TbBS2u43W7_qXYjhyYiTDAx8UQXh8OAppWE1Hrlq4G-_hcuGvd4sdauAVkonBA0Zg8ViGp3FG_BIwemDS9j3kIhPQsovGSl1deSi6kqSgQl4un_AeDYwrrm4qmMUSVF5eIicvetoEaEksy9R9OsYE9B0vLDLxmLUySfXIY4NlIdIPp9qs7n9XjNRc9ypFNZ4Z6GS2cf6srzRr_BkxLGGwgC9636TOirTlgJCuCBchNv1r2yzgwx6t3eDi6vOgd9dXNacDrTjrR9C4FpuFAypnvRrT_DGm32a8AhdjABWfhorAQ-yAuyI5SNNxJ- -fy-JCv58dgn4k3y2ZV1dy0]--></g></svg>